<?xml version="1.0" encoding="utf-8"?>
<!-- Generator: Adobe Illustrator 19.0.0, SVG Export Plug-In . SVG Version: 6.00 Build 0)  -->
<svg version="1.1" id="Capa_1" xmlns="http://www.w3.org/2000/svg" xmlns:xlink="http://www.w3.org/1999/xlink" x="0px" y="0px"
	 viewBox="-47 170.9 500 500" style="enable-background:new -47 170.9 500 500;" xml:space="preserve">
<style type="text/css">
	.st0{fill:#010002;}
</style>
<g id="XMLID_27_">
	<path id="XMLID_65_" class="st0" d="M120.3,486.4c-13.9,0-25.2,11.3-25.2,25.2c0,13.9,11.3,25.2,25.2,25.2s25.2-11.3,25.2-25.2
		C145.5,497.7,134.2,486.4,120.3,486.4z M120.3,522.6c-6.1,0-11-4.9-11-11s4.9-11,11-11s11,4.9,11,11
		C131.3,517.7,126.4,522.6,120.3,522.6z"/>
	<path id="XMLID_62_" class="st0" d="M305.1,486.4c-13.9,0-25.2,11.3-25.2,25.2c0,13.9,11.3,25.2,25.2,25.2
		c13.9,0,25.2-11.3,25.2-25.2C330.3,497.7,319,486.4,305.1,486.4z M305.1,522.6c-6.1,0-11-4.9-11-11s4.9-11,11-11s11,4.9,11,11
		C316.1,517.7,311.2,522.6,305.1,522.6z"/>
	<path id="XMLID_43_" class="st0" d="M354.9,479.1l-49.7-79.6c-18.6-40.4-65.4-34.5-65.4-34.5h-75.5H97l155.4-56.5
		c-7.2-6.1-21.9-2.6-21.9-2.6L75.5,365h-7.9c-19.4,0-18.5,20.9-18.5,20.9v2.3v105.3c0,14.8,14.1,13.8,14.1,13.8h23.2
		c0,0,3.3-30,34.1-30s35,30,35,30h88.6l0,0h26.6c0,0,2.7-29.9,33.4-29.9s35.7,29.9,35.7,29.9S364,504.3,354.9,479.1z M208.6,440.1
		c0,6.2-5.1,11.3-11.3,11.3h-44.6c-6.2,0-11.3-5.1-11.3-11.3v-19.3c0-6.2,5.1-11.3,11.3-11.3h44.6c6.2,0,11.3,5.1,11.3,11.3V440.1
		L208.6,440.1z M300.5,460.3h-37.7v-50.8h23.7l21.7,36.2C315.5,457.1,300.5,460.3,300.5,460.3z"/>
	<polygon id="XMLID_29_" class="st0" points="238.7,321.1 238.7,358.1 136.4,358.1 	"/>
</g>
</svg>
