<?xml version="1.0" encoding="utf-8"?>
<!-- Generator: Adobe Illustrator 19.0.0, SVG Export Plug-In . SVG Version: 6.00 Build 0)  -->
<svg version="1.1" id="Capa_1" xmlns="http://www.w3.org/2000/svg" xmlns:xlink="http://www.w3.org/1999/xlink" x="0px" y="0px"
	 viewBox="-47 170.9 500 500" style="enable-background:new -47 170.9 500 500;" xml:space="preserve">
<style type="text/css">
	.st0{fill:#010002;}
</style>
<g id="XMLID_61_">
	<path id="XMLID_41_" class="st0" d="M133.6,473.5c-16.4,0-29.6,13.3-29.6,29.6c0,16.4,13.3,29.6,29.6,29.6
		c16.4,0,29.6-13.3,29.6-29.6C163.2,486.8,149.9,473.5,133.6,473.5z M133.6,516.1c-7.1,0-12.9-5.8-12.9-12.9s5.8-12.9,12.9-12.9
		c7.1,0,12.9,5.8,12.9,12.9C146.5,510.3,140.7,516.1,133.6,516.1z"/>
	<path id="XMLID_40_" class="st0" d="M367.8,473.5c-16.4,0-29.6,13.3-29.6,29.6c0,16.4,13.3,29.6,29.6,29.6
		c16.4,0,29.6-13.3,29.6-29.6C397.4,486.8,384.2,473.5,367.8,473.5z M367.8,516.1c-7.1,0-12.9-5.8-12.9-12.9s5.8-12.9,12.9-12.9
		s12.9,5.8,12.9,12.9C380.7,510.3,374.9,516.1,367.8,516.1z"/>
	<path id="XMLID_39_" class="st0" d="M426.3,464.9L366.5,383h-70.6v115h31.3c0,0,3.2-35.2,39.3-35.2s42,35.2,42,35.2
		S437.1,494.5,426.3,464.9z M362.3,442.8H318v-39.3h39.3l14,22C380,439,362.3,442.8,362.3,442.8z"/>
	<path id="XMLID_57_" class="st0" d="M400.7,328.6c-16.8-20.7-49.5-19.5-49.5-19.5h-69.1c-26.8,0-44.8,8.7-44.8,8.7l-22.5,9.9
		c-6.1,2.6-12.9,2.8-12.9,2.8H0.1c-22.9,0-21.8,24.6-21.8,24.6v2.7c0,120.9,0,64,0,123.9c0,17.4,16.6,16.2,16.6,16.2h98.6
		c0,0,3.9-35.3,40.1-35.3c36.3,0,41.2,35.3,41.2,35.3h110.6l0.2-127.1h96.3c23.3,0,27.6-12,27.6-12S417.5,349.3,400.7,328.6z
		 M51.6,398.2c0,7.3-6,13.3-13.3,13.3H22.9c-7.3,0-13.3-6-13.3-13.3v-15.4c0-7.3,6-13.3,13.3-13.3h15.4c7.3,0,13.3,6,13.3,13.3
		C51.6,382.8,51.6,398.2,51.6,398.2z M254.2,405.5c0,7.3-6,13.3-13.3,13.3h-52.5c-7.3,0-13.3-6-13.3-13.3v-22.7
		c0-7.3,6-13.3,13.3-13.3h52.5c7.3,0,13.3,6,13.3,13.3V405.5z M354.5,337c0,4.7-3.8,8.6-8.6,8.6h-41.5c-4.7,0-8.6-3.8-8.6-8.6v-6
		c0-4.7,3.8-8.6,8.6-8.6h41.5c4.7,0,8.6,3.8,8.6,8.6V337z"/>
</g>
</svg>
