<?xml version="1.0" encoding="utf-8"?>
<!-- Generator: Adobe Illustrator 19.0.0, SVG Export Plug-In . SVG Version: 6.00 Build 0)  -->
<svg version="1.1" id="Capa_1" xmlns="http://www.w3.org/2000/svg" xmlns:xlink="http://www.w3.org/1999/xlink" x="0px" y="0px"
	 viewBox="-47 170.9 500 500" style="enable-background:new -47 170.9 500 500;" xml:space="preserve">
<style type="text/css">
	.st0{fill:#010002;}
</style>
<g id="XMLID_60_">
	<path id="XMLID_51_" class="st0" d="M139.3,481c-16.4,0-29.6,13.3-29.6,29.6c0,16.4,13.3,29.6,29.6,29.6
		c16.4,0,29.6-13.3,29.6-29.6C169,494.3,155.7,481,139.3,481z M139.3,523.6c-7.1,0-12.9-5.8-12.9-12.9c0-7.1,5.8-12.9,12.9-12.9
		c7.1,0,12.9,5.8,12.9,12.9C152.2,517.8,146.5,523.6,139.3,523.6z"/>
	<path id="XMLID_48_" class="st0" d="M343.2,481c-16.4,0-29.6,13.3-29.6,29.6c0,16.4,13.3,29.6,29.6,29.6
		c16.4,0,29.6-13.3,29.6-29.6S359.6,481,343.2,481z M343.2,523.6c-7.1,0-12.9-5.8-12.9-12.9c0-7.1,5.8-12.9,12.9-12.9
		s12.9,5.8,12.9,12.9C356.1,517.8,350.3,523.6,343.2,523.6z"/>
	<path id="XMLID_44_" class="st0" d="M177.3,338.1H41.8c-22.9,0-21.8,24.6-21.8,24.6v2.7c0,0,0,106.5,0,123.9s16.6,16.2,16.6,16.2
		h62.7c0,0,3.9-35.3,40.1-35.3c36.3,0,41.2,35.3,41.2,35.3h80.3l0.2-127.1h85.1c4.4,0,7.7-4.1,6.6-8.4c-8.4-34.4-68-31.8-68-31.8
		H177.3V338.1z M84.4,405.8c0,7.3-6,13.3-13.3,13.3H55.6c-7.3,0-13.3-6-13.3-13.3v-15.4c0-7.3,6-13.3,13.3-13.3H71
		c7.3,0,13.3,6,13.3,13.3L84.4,405.8L84.4,405.8z M229.6,413c0,7.3-6,13.3-13.3,13.3h-52.5c-7.3,0-13.3-6-13.3-13.3v-22.7
		c0-7.3,6-13.3,13.3-13.3h52.5c7.3,0,13.3,6,13.3,13.3V413z"/>
	<path id="XMLID_28_" class="st0" d="M401.7,472.4l-59.8-81.9h-70.6v115h31.3c0,0,3.2-35.2,39.3-35.2s42,35.2,42,35.2
		S412.5,502,401.7,472.4z M337.7,450.3h-44.3V411h39.3l14,22C355.4,446.5,337.7,450.3,337.7,450.3z"/>
</g>
</svg>
